<svg xmlns="http://www.w3.org/2000/svg" xmlns:xlink="http://www.w3.org/1999/xlink" xmlns:lucid="lucid" width="781" height="581"><g transform="translate(-19.5 0.5)" lucid:page-tab-id="0_0"><path d="M580 300c0 99.4-80.6 180-180 180s-180-80.6-180-180 80.6-180 180-180 180 80.6 180 180z" stroke="#3a414a" fill="url(#a)"/><path d="M120 380c0 22.1-17.9 40-40 40s-40-17.9-40-40 17.9-40 40-40 40 17.9 40 40z" stroke="#3a414a" fill="url(#b)"/><use xlink:href="#c" transform="matrix(1,0,0,1,45,345) translate(24.09567901234568 39.65277777777778)"/><path d="M120 180c0 22.1-17.9 40-40 40s-40-17.9-40-40 17.9-40 40-40 40 17.9 40 40z" stroke="#3a414a" fill="url(#d)"/><use xlink:href="#e" transform="matrix(1,0,0,1,45,145) translate(24.506172839506174 39.65277777777778)"/><path d="M120 60c0 22.1-17.9 40-40 40S40 82.1 40 60s17.9-40 40-40 40 17.9 40 40z" stroke="#3a414a" fill="url(#f)"/><use xlink:href="#g" transform="matrix(1,0,0,1,45,25) translate(24.506172839506174 39.65277777777778)"/><path d="M120 520c0 22.1-17.9 40-40 40s-40-17.9-40-40 17.9-40 40-40 40 17.9 40 40z" stroke="#3a414a" fill="url(#h)"/><use xlink:href="#i" transform="matrix(1,0,0,1,45,485) translate(28.82716049382716 39.65277777777778)"/><path d="M280 486a6 6 0 0 1 6-6h228a6 6 0 0 1 6 6v48a6 6 0 0 1-6 6H286a6 6 0 0 1-6-6z" stroke="#000" stroke-opacity="0" fill="#fff" fill-opacity="0"/><use xlink:href="#j" transform="matrix(1,0,0,1,285,485) translate(60.74074074074074 30.27777777777778)"/><path d="M120.27 67.04l133 101.83" stroke="#3a414a" fill="none"/><path d="M120.58 66.66l-.6.8-.2-.17.2-1.1z" stroke="#3a414a" stroke-width=".05" fill="#3a414a"/><path d="M265 177.84l-14.16-5 5.64-7.35z" stroke="#3a414a" fill="#3a414a"/><path d="M120.1 188.12l94.93 44.57" stroke="#3a414a" fill="none"/><path d="M120.33 187.67l-.43.9-.34-.16.2-1z" stroke="#3a414a" stroke-width=".05" fill="#3a414a"/><path d="M228.4 238.96l-14.9-1.87 3.95-8.4z" stroke="#3a414a" fill="#3a414a"/><path d="M121 379.96l96.44-8.17" stroke="#3a414a" fill="none"/><path d="M121.05 380.45l-.58.05.03-.5-.02-.5.5-.04z" stroke="#3a414a" stroke-width=".05" fill="#3a414a"/><path d="M232.15 370.55l-13.83 5.82-.78-9.24z" stroke="#3a414a" fill="#3a414a"/><path d="M117.7 504.06l157.7-54.93" stroke="#3a414a" fill="none"/><path d="M117.9 504.53l-.48.16-.37-.93.5-.18z" stroke="#3a414a" stroke-width=".05" fill="#3a414a"/><path d="M289.36 444.28l-11.95 9.07-3.04-8.76z" stroke="#3a414a" fill="#3a414a"/><path d="M85 260c0 2.72-2.24 4.93-5 4.93s-5-2.2-5-4.93c0-2.72 2.24-4.93 5-4.93s5 2.2 5 4.93zM85 280c0 2.72-2.24 4.93-5 4.93s-5-2.2-5-4.93c0-2.72 2.24-4.93 5-4.93s5 2.2 5 4.93zM85 300c0 2.72-2.24 4.93-5 4.93s-5-2.2-5-4.93c0-2.72 2.24-4.93 5-4.93s5 2.2 5 4.93z" stroke="#3a414a"/><path d="M280 414.6a6 6 0 0 1 6-6h48a6 6 0 0 1 6 6v48a6 6 0 0 1-6 6h-48a6 6 0 0 1-6-6z" stroke="#000" stroke-opacity="0" fill="#fff" fill-opacity="0"/><use xlink:href="#k" transform="matrix(1,0,0,1,285,413.58915268204004) translate(18.24074074074074 30.27777777777778)"/><path d="M252.5 166a6 6 0 0 1 6-6h48a6 6 0 0 1 6 6v48a6 6 0 0 1-6 6h-48a6 6 0 0 1-6-6z" stroke="#000" stroke-opacity="0" fill="#fff" fill-opacity="0"/><use xlink:href="#l" transform="matrix(1,0,0,1,257.5,165) translate(12.037037037037038 30.27777777777778)"/><path d="M226.8 221.07a6 6 0 0 1 6-6h48a6 6 0 0 1 6 6v48a6 6 0 0 1-6 6h-48a6 6 0 0 1-6-6z" stroke="#000" stroke-opacity="0" fill="#fff" fill-opacity="0"/><use xlink:href="#m" transform="matrix(1,0,0,1,231.80311764778082,220.06691578901734) translate(12.037037037037038 30.27777777777778)"/><path d="M226.8 346a6 6 0 0 1 6-6h48a6 6 0 0 1 6 6v48a6 6 0 0 1-6 6h-48a6 6 0 0 1-6-6z" stroke="#000" stroke-opacity="0" fill="#fff" fill-opacity="0"/><use xlink:href="#n" transform="matrix(1,0,0,1,231.80311764778082,345) translate(11.626543209876544 30.27777777777778)"/><path d="M247.5 280c0 1.36-1.12 2.47-2.5 2.47s-2.5-1.1-2.5-2.47c0-1.36 1.12-2.47 2.5-2.47s2.5 1.1 2.5 2.47z" stroke="#3a414a"/><path d="M420 300.27c0 33-26.86 59.73-60 59.73s-60-26.74-60-59.73c0-33 26.86-59.74 60-59.74s60 26.75 60 59.74z" stroke="#3a414a" fill="url(#o)"/><use xlink:href="#p" transform="matrix(1,0,0,1,339,279.5337256505179) translate(7.400000000000004 36.26666666666665)"/><path d="M540 300c0 22.1-17.9 40-40 40s-40-17.9-40-40 17.9-40 40-40 40 17.9 40 40z" stroke="#3a414a" fill="url(#q)"/><path d="M380 330.93a6 6 0 0 1 6-6h228a6 6 0 0 1 6 6v48a6 6 0 0 1-6 6H386a6 6 0 0 1-6-6z" stroke="#000" stroke-opacity="0" fill="#fff" fill-opacity="0"/><use xlink:href="#r" transform="matrix(1,0,0,1,385,329.93308421098266) translate(81.33950617283952 28.069444444444443)"/><path d="M316.24 429.95l26.72-55.5M316.24 429.94l-.22.46" stroke="#3a414a" fill="none"/><path d="M349.36 361.14l-2 14.87L339 372z" stroke="#3a414a" fill="#3a414a"/><path d="M296.7 197.64l28.3 34.93M296.7 197.65l-.33-.4" stroke="#3a414a" fill="none"/><path d="M334.3 244.04l-12.6-8.17 7.2-5.83z" stroke="#3a414a" fill="#3a414a"/><path d="M273.05 251.4l19.6 11.98M273.06 251.4l-.44-.27" stroke="#3a414a" fill="none"/><path d="M305.23 271.1l-14.58-3.5 4.84-7.9z" stroke="#3a414a" fill="#3a414a"/><path d="M271.67 366.16l39.4-11.1M271.68 366.15l-.5.14" stroke="#3a414a" fill="none"/><path d="M325.27 351.07l-12.48 8.33-2.52-8.92z" stroke="#3a414a" fill="#3a414a"/><path d="M421 300.27h22.13" stroke="#3a414a" fill="none"/><path d="M421 300.77h-.52l.02-.5-.02-.5h.53z" stroke="#3a414a" stroke-width=".05" fill="#3a414a"/><path d="M457.9 300.27l-14.27 4.63v-9.27z" stroke="#3a414a" fill="#3a414a"/><path d="M541 300h172.5" stroke="#3a414a" fill="none"/><path d="M541 300.5h-.53l.03-.5-.02-.5h.53z" stroke="#3a414a" stroke-width=".05" fill="#3a414a"/><path d="M728.28 300L714 304.63v-9.26z" stroke="#3a414a" fill="#3a414a"/><path d="M660 312.94a6 6 0 0 1 6-6h108a6 6 0 0 1 6 6V334a6 6 0 0 1-6 6H666a6 6 0 0 1-6-6z" stroke="#000" stroke-opacity="0" fill="#fff" fill-opacity="0"/><use xlink:href="#s" transform="matrix(1,0,0,1,665,311.93869471172565) translate(24.135802469135804 19.27777777777778)"/><path d="M242.5 304.47c0 1.36-1.12 2.47-2.5 2.47s-2.5-1.1-2.5-2.47c0-1.36 1.12-2.46 2.5-2.46s2.5 1.1 2.5 2.47zM247.5 328.94c0 1.37-1.12 2.47-2.5 2.47s-2.5-1.1-2.5-2.46c0-1.36 1.12-2.46 2.5-2.46s2.5 1.1 2.5 2.46z" stroke="#3a414a"/><defs><linearGradient gradientUnits="userSpaceOnUse" id="a" x1="220" y1="120" x2="220" y2="480"><stop offset="0%" stop-color="#ced4db"/><stop offset="99.18%" stop-color="#fff"/></linearGradient><linearGradient gradientUnits="userSpaceOnUse" id="b" x1="40" y1="340" x2="40" y2="420"><stop offset="16.87%" stop-color="#fff"/><stop offset="100%" stop-color="#ba23f6"/></linearGradient><path fill="#3a414a" d="M144 0l-44-69L55 0H2l70-98-66-92h53l41 62 40-62h54l-67 91 71 99h-54" id="t"/><path fill="#3a414a" d="M135-194c87-1 58 113 63 194h-50c-7-57 23-157-34-157-59 0-34 97-39 157H25l-1-190h47c2 12-1 28 3 38 12-26 28-41 61-42" id="u"/><g id="c"><use transform="matrix(0.06172839506172839,0,0,0.06172839506172839,0,0)" xlink:href="#t"/><use transform="matrix(0.043209876543209874,0,0,0.043209876543209874,12.345679012345679,3.1111111111111107)" xlink:href="#u"/></g><linearGradient gradientUnits="userSpaceOnUse" id="d" x1="40" y1="140" x2="40" y2="220"><stop offset="0%" stop-color="#fff"/><stop offset="100%" stop-color="#fc9432"/></linearGradient><path fill="#3a414a" d="M182-182c0 78-84 86-111 141h115V0H12c-6-101 99-100 120-180 1-22-12-31-33-32-23 0-32 14-35 34l-49-3c5-45 32-70 84-70 51 0 83 22 83 69" id="v"/><g id="e"><use transform="matrix(0.06172839506172839,0,0,0.06172839506172839,0,0)" xlink:href="#t"/><use transform="matrix(0.043209876543209874,0,0,0.043209876543209874,12.345679012345679,3.1111111111111107)" xlink:href="#v"/></g><linearGradient gradientUnits="userSpaceOnUse" id="f" x1="40" y1="20" x2="40" y2="100"><stop offset="0%" stop-color="#fff"/><stop offset="100%" stop-color="#e81313"/></linearGradient><path fill="#3a414a" d="M23 0v-37h61v-169l-59 37v-38l62-41h46v211h57V0H23" id="w"/><g id="g"><use transform="matrix(0.06172839506172839,0,0,0.06172839506172839,0,0)" xlink:href="#t"/><use transform="matrix(0.043209876543209874,0,0,0.043209876543209874,12.345679012345679,3.1111111111111107)" xlink:href="#w"/></g><linearGradient gradientUnits="userSpaceOnUse" id="h" x1="40" y1="480" x2="40" y2="560"><stop offset="0%" stop-color="#fff"/><stop offset="95.47%" stop-color="#dfe3e8"/></linearGradient><use transform="matrix(0.06172839506172839,0,0,0.06172839506172839,0,0)" xlink:href="#w" id="i"/><path fill="#3a414a" d="M30-248c87 1 191-15 191 75 0 78-77 80-158 76V0H30v-248zm33 125c57 0 124 11 124-50 0-59-68-47-124-48v98" id="x"/><path fill="#3a414a" d="M100-194c63 0 86 42 84 106H49c0 40 14 67 53 68 26 1 43-12 49-29l28 8c-11 28-37 45-77 45C44 4 14-33 15-96c1-61 26-98 85-98zm52 81c6-60-76-77-97-28-3 7-6 17-6 28h103" id="y"/><path fill="#3a414a" d="M114-163C36-179 61-72 57 0H25l-1-190h30c1 12-1 29 2 39 6-27 23-49 58-41v29" id="z"/><path fill="#3a414a" d="M96-169c-40 0-48 33-48 73s9 75 48 75c24 0 41-14 43-38l32 2c-6 37-31 61-74 61-59 0-76-41-82-99-10-93 101-131 147-64 4 7 5 14 7 22l-32 3c-4-21-16-35-41-35" id="A"/><path fill="#3a414a" d="M115-194c55 1 70 41 70 98S169 2 115 4C84 4 66-9 55-30l1 105H24l-1-265h31l2 30c10-21 28-34 59-34zm-8 174c40 0 45-34 45-75s-6-73-45-74c-42 0-51 32-51 76 0 43 10 73 51 73" id="B"/><path fill="#3a414a" d="M59-47c-2 24 18 29 38 22v24C64 9 27 4 27-40v-127H5v-23h24l9-43h21v43h35v23H59v120" id="C"/><path fill="#3a414a" d="M100-194c62-1 85 37 85 99 1 63-27 99-86 99S16-35 15-95c0-66 28-99 85-99zM99-20c44 1 53-31 53-75 0-43-8-75-51-75s-53 32-53 75 10 74 51 75" id="D"/><path fill="#3a414a" d="M117-194c89-4 53 116 60 194h-32v-121c0-31-8-49-39-48C34-167 62-67 57 0H25l-1-190h30c1 10-1 24 2 32 11-22 29-35 61-36" id="E"/><g id="j"><use transform="matrix(0.06172839506172839,0,0,0.06172839506172839,0,0)" xlink:href="#x"/><use transform="matrix(0.06172839506172839,0,0,0.06172839506172839,14.814814814814813,0)" xlink:href="#y"/><use transform="matrix(0.06172839506172839,0,0,0.06172839506172839,27.160493827160494,0)" xlink:href="#z"/><use transform="matrix(0.06172839506172839,0,0,0.06172839506172839,34.50617283950617,0)" xlink:href="#A"/><use transform="matrix(0.06172839506172839,0,0,0.06172839506172839,45.61728395061728,0)" xlink:href="#y"/><use transform="matrix(0.06172839506172839,0,0,0.06172839506172839,57.962962962962955,0)" xlink:href="#B"/><use transform="matrix(0.06172839506172839,0,0,0.06172839506172839,70.30864197530863,0)" xlink:href="#C"/><use transform="matrix(0.06172839506172839,0,0,0.06172839506172839,76.48148148148147,0)" xlink:href="#z"/><use transform="matrix(0.06172839506172839,0,0,0.06172839506172839,83.82716049382715,0)" xlink:href="#D"/><use transform="matrix(0.06172839506172839,0,0,0.06172839506172839,96.17283950617283,0)" xlink:href="#E"/></g><path fill="#3a414a" d="M135-194c52 0 70 43 70 98 0 56-19 99-73 100-30 1-46-15-58-35L72 0H24l1-261h50v104c11-23 29-37 60-37zM114-30c31 0 40-27 40-66 0-37-7-63-39-63s-41 28-41 65c0 36 8 64 40 64" id="F"/><use transform="matrix(0.06172839506172839,0,0,0.06172839506172839,0,0)" xlink:href="#F" id="k"/><path fill="#3a414a" d="M231 0h-52l-39-155L100 0H48L-1-190h46L77-45c9-52 24-97 36-145h53l37 145 32-145h46" id="G"/><g id="l"><use transform="matrix(0.06172839506172839,0,0,0.06172839506172839,0,0)" xlink:href="#G"/><use transform="matrix(0.043209876543209874,0,0,0.043209876543209874,17.28395061728395,3.1111111111111107)" xlink:href="#w"/></g><g id="m"><use transform="matrix(0.06172839506172839,0,0,0.06172839506172839,0,0)" xlink:href="#G"/><use transform="matrix(0.043209876543209874,0,0,0.043209876543209874,17.28395061728395,3.1111111111111107)" xlink:href="#v"/></g><g id="n"><use transform="matrix(0.06172839506172839,0,0,0.06172839506172839,0,0)" xlink:href="#G"/><use transform="matrix(0.043209876543209874,0,0,0.043209876543209874,17.28395061728395,3.1111111111111107)" xlink:href="#u"/></g><linearGradient gradientUnits="userSpaceOnUse" id="o" x1="420" y1="240.53" x2="420" y2="360"><stop offset="0%" stop-color="#e81313"/><stop offset="20.99%" stop-color="#fc9432"/><stop offset="60.08%" stop-color="#ffe342"/><stop offset="68.72%" stop-color="#54c45e"/><stop offset="76.13%" stop-color="#1071e5"/><stop offset="91.77%" stop-color="#ba23f6"/><stop offset="100%" stop-color="#dfe3e8"/></linearGradient><path fill="#202122" d="M16 0v-41l79-89-76-77v-41h175v40H72l65 66v24L68-40h137V0H16" id="H"/><use transform="matrix(0.12592592592592589,0,0,0.12592592592592589,0,0)" xlink:href="#H" id="p"/><linearGradient gradientUnits="userSpaceOnUse" id="q" x1="460" y1="340" x2="540" y2="340"><stop offset="0%" stop-color="#fff"/><stop offset="53.5%" stop-color="#fc9432"/></linearGradient><path fill="#3a414a" d="M205 0l-28-72H64L36 0H1l101-248h38L239 0h-34zm-38-99l-47-123c-12 45-31 82-46 123h93" id="I"/><path fill="#3a414a" d="M24-231v-30h32v30H24zM24 0v-190h32V0H24" id="J"/><path fill="#3a414a" d="M108 0H70L1-190h34L89-25l56-165h34" id="K"/><path fill="#3a414a" d="M141-36C126-15 110 5 73 4 37 3 15-17 15-53c-1-64 63-63 125-63 3-35-9-54-41-54-24 1-41 7-42 31l-33-3c5-37 33-52 76-52 45 0 72 20 72 64v82c-1 20 7 32 28 27v20c-31 9-61-2-59-35zM48-53c0 20 12 33 32 33 41-3 63-29 60-74-43 2-92-5-92 41" id="L"/><g id="r"><use transform="matrix(0.04320987654320987,0,0,0.04320987654320987,0,0)" xlink:href="#I"/><use transform="matrix(0.04320987654320987,0,0,0.04320987654320987,10.370370370370368,0)" xlink:href="#A"/><use transform="matrix(0.04320987654320987,0,0,0.04320987654320987,18.148148148148145,0)" xlink:href="#C"/><use transform="matrix(0.04320987654320987,0,0,0.04320987654320987,22.469135802469133,0)" xlink:href="#J"/><use transform="matrix(0.04320987654320987,0,0,0.04320987654320987,25.88271604938271,0)" xlink:href="#K"/><use transform="matrix(0.04320987654320987,0,0,0.04320987654320987,33.66049382716049,0)" xlink:href="#L"/><use transform="matrix(0.04320987654320987,0,0,0.04320987654320987,42.30246913580246,0)" xlink:href="#C"/><use transform="matrix(0.04320987654320987,0,0,0.04320987654320987,46.62345679012345,0)" xlink:href="#J"/><use transform="matrix(0.04320987654320987,0,0,0.04320987654320987,50.037037037037024,0)" xlink:href="#D"/><use transform="matrix(0.04320987654320987,0,0,0.04320987654320987,58.67901234567901,0)" xlink:href="#E"/></g><path fill="#3a414a" d="M84 4C-5 8 30-112 23-190h32v120c0 31 7 50 39 49 72-2 45-101 50-169h31l1 190h-30c-1-10 1-25-2-33-11 22-28 36-60 37" id="M"/><g id="s"><use transform="matrix(0.06172839506172839,0,0,0.06172839506172839,0,0)" xlink:href="#D"/><use transform="matrix(0.06172839506172839,0,0,0.06172839506172839,12.345679012345679,0)" xlink:href="#M"/><use transform="matrix(0.06172839506172839,0,0,0.06172839506172839,24.691358024691358,0)" xlink:href="#C"/><use transform="matrix(0.06172839506172839,0,0,0.06172839506172839,30.864197530864196,0)" xlink:href="#B"/><use transform="matrix(0.06172839506172839,0,0,0.06172839506172839,43.20987654320987,0)" xlink:href="#M"/><use transform="matrix(0.06172839506172839,0,0,0.06172839506172839,55.55555555555555,0)" xlink:href="#C"/></g></defs></g></svg>