<svg xmlns="http://www.w3.org/2000/svg" xmlns:xlink="http://www.w3.org/1999/xlink" xmlns:lucid="lucid" width="821" height="581"><g transform="translate(20.5 0.5)" lucid:page-tab-id="0_0"><path d="M580 300c0 99.4-80.6 180-180 180s-180-80.6-180-180 80.6-180 180-180 180 80.6 180 180z" stroke="#3a414a" fill="url(#a)"/><path d="M120 520c0 22.1-17.9 40-40 40s-40-17.9-40-40 17.9-40 40-40 40 17.9 40 40z" stroke="#3a414a" fill="url(#b)"/><use xlink:href="#c" transform="matrix(1,0,0,1,45,485) translate(24.09567901234568 39.65277777777778)"/><path d="M120 320c0 22.1-17.9 40-40 40s-40-17.9-40-40 17.9-40 40-40 40 17.9 40 40z" stroke="#3a414a" fill="url(#d)"/><use xlink:href="#e" transform="matrix(1,0,0,1,45,285) translate(24.506172839506174 39.65277777777778)"/><path d="M120 200c0 22.1-17.9 40-40 40s-40-17.9-40-40 17.9-40 40-40 40 17.9 40 40z" stroke="#3a414a" fill="url(#f)"/><use xlink:href="#g" transform="matrix(1,0,0,1,45,165) translate(24.506172839506174 39.65277777777778)"/><path d="M120 60c0 22.1-17.9 40-40 40S40 82.1 40 60s17.9-40 40-40 40 17.9 40 40z" stroke="#3a414a" fill="url(#h)"/><path d="M280 486a6 6 0 0 1 6-6h228a6 6 0 0 1 6 6v48a6 6 0 0 1-6 6H286a6 6 0 0 1-6-6z" stroke="#000" stroke-opacity="0" fill="#fff" fill-opacity="0"/><use xlink:href="#i" transform="matrix(1,0,0,1,285,485) translate(60.74074074074074 30.27777777777778)"/><path d="M0 46a6 6 0 0 1 6-6h148a6 6 0 0 1 6 6v28a6 6 0 0 1-6 6H6a6 6 0 0 1-6-6z" stroke="#000" stroke-opacity="0" fill="#fff" fill-opacity="0"/><use xlink:href="#j" transform="matrix(1,0,0,1,5,45) translate(68.82716049382717 19.65277777777778)"/><path d="M120 66a6 6 0 0 1 6-6h148a6 6 0 0 1 6 6v28a6 6 0 0 1-6 6H126a6 6 0 0 1-6-6z" stroke="#000" stroke-opacity="0" fill="#fff" fill-opacity="0"/><use xlink:href="#k" transform="matrix(1,0,0,1,125,65) translate(45.46296296296296 19.65277777777778)"/><path d="M120.34 206.9l91.9 33.88" stroke="#3a414a" fill="none"/><path d="M120.53 206.45l-.35.94-.4-.16.2-1z" stroke="#3a414a" stroke-width=".05" fill="#3a414a"/><path d="M226.08 245.9l-15-.6 3.22-8.7z" stroke="#3a414a" fill="#3a414a"/><path d="M120.38 313.25h83.24" stroke="#3a414a" fill="none"/><path d="M120.4 313.75h-.45l-.13-1h.58z" stroke="#3a414a" stroke-width=".05" fill="#3a414a"/><path d="M218.38 313.25l-14.26 4.64v-9.28z" stroke="#3a414a" fill="#3a414a"/><path d="M115.47 499.56l135.77-71.3" stroke="#3a414a" fill="none"/><path d="M115.7 500l-.43.23-.5-.87.48-.25z" stroke="#3a414a" stroke-width=".05" fill="#3a414a"/><path d="M264.3 421.4l-10.47 10.73-4.3-8.2z" stroke="#3a414a" fill="#3a414a"/><path d="M116.08 79.47l139.72 87" stroke="#3a414a" fill="none"/><path d="M116.35 79.05l-.53.85-.4-.26.15-.25.3-.65z" stroke="#3a414a" stroke-width=".05" fill="#3a414a"/><path d="M268.33 174.27l-14.55-3.6 4.9-7.88z" stroke="#3a414a" fill="#3a414a"/><path d="M85 400c0 2.72-2.24 4.93-5 4.93s-5-2.2-5-4.93c0-2.72 2.24-4.93 5-4.93s5 2.2 5 4.93zM85 420c0 2.72-2.24 4.93-5 4.93s-5-2.2-5-4.93c0-2.72 2.24-4.93 5-4.93s5 2.2 5 4.93zM85 440c0 2.72-2.24 4.93-5 4.93s-5-2.2-5-4.93c0-2.72 2.24-4.93 5-4.93s5 2.2 5 4.93z" stroke="#3a414a"/><path d="M260 166a6 6 0 0 1 6-6h48a6 6 0 0 1 6 6v48a6 6 0 0 1-6 6h-48a6 6 0 0 1-6-6z" stroke="#000" stroke-opacity="0" fill="#fff" fill-opacity="0"/><use xlink:href="#l" transform="matrix(1,0,0,1,265,165) translate(12.037037037037038 30.27777777777778)"/><path d="M220 226a6 6 0 0 1 6-6h48a6 6 0 0 1 6 6v48a6 6 0 0 1-6 6h-48a6 6 0 0 1-6-6z" stroke="#000" stroke-opacity="0" fill="#fff" fill-opacity="0"/><use xlink:href="#m" transform="matrix(1,0,0,1,225,225) translate(12.037037037037038 30.27777777777778)"/><path d="M220 286a6 6 0 0 1 6-6h48a6 6 0 0 1 6 6v48a6 6 0 0 1-6 6h-48a6 6 0 0 1-6-6z" stroke="#000" stroke-opacity="0" fill="#fff" fill-opacity="0"/><use xlink:href="#n" transform="matrix(1,0,0,1,225,285) translate(12.037037037037038 30.27777777777778)"/><path d="M250 381.07a6 6 0 0 1 6-6h48a6 6 0 0 1 6 6v48a6 6 0 0 1-6 6h-48a6 6 0 0 1-6-6z" stroke="#000" stroke-opacity="0" fill="#fff" fill-opacity="0"/><use xlink:href="#o" transform="matrix(1,0,0,1,255,380.06691578901734) translate(11.626543209876544 30.27777777777778)"/><path d="M250 337.53c0 1.37-1.12 2.47-2.5 2.47s-2.5-1.1-2.5-2.47c0-1.36 1.12-2.46 2.5-2.46s2.5 1.1 2.5 2.46z" stroke="#3a414a"/><path d="M420 300.27c0 33-26.86 59.73-60 59.73s-60-26.74-60-59.73c0-33 26.86-59.74 60-59.74s60 26.75 60 59.74z" stroke="#3a414a" fill="url(#p)"/><use xlink:href="#q" transform="matrix(1,0,0,1,339,279.5337256505179) translate(7.400000000000004 36.26666666666665)"/><path d="M540 300c0 22.1-17.9 40-40 40s-40-17.9-40-40 17.9-40 40-40 40 17.9 40 40z" stroke="#3a414a" fill="url(#r)"/><path d="M380 330.93a6 6 0 0 1 6-6h228a6 6 0 0 1 6 6v48a6 6 0 0 1-6 6H386a6 6 0 0 1-6-6z" stroke="#000" stroke-opacity="0" fill="#fff" fill-opacity="0"/><use xlink:href="#s" transform="matrix(1,0,0,1,385,329.93308421098266) translate(81.33950617283952 28.069444444444443)"/><path d="M300.8 202.54l18.5 32.75M300.8 202.55l-.25-.44" stroke="#3a414a" fill="none"/><path d="M326.56 248.14L315.5 238l8.08-4.56z" stroke="#3a414a" fill="#3a414a"/><path d="M264.33 257.45L290 268.62M264.34 257.46l-.47-.2" stroke="#3a414a" fill="none"/><path d="M303.55 274.5l-14.93-1.44 3.7-8.5z" stroke="#3a414a" fill="#3a414a"/><path d="M263.9 311.13l20.03-.62M263.9 311.13h-.5" stroke="#3a414a" fill="none"/><path d="M298.7 310.05l-14.13 5.07-.3-9.26z" stroke="#3a414a" fill="#3a414a"/><path d="M288.66 398.42l27.43-35.31M288.67 398.4l-.32.42" stroke="#3a414a" fill="none"/><path d="M325.15 351.44l-5.1 14.1-7.3-5.67z" stroke="#3a414a" fill="#3a414a"/><path d="M421 300.27h22.13" stroke="#3a414a" fill="none"/><path d="M421 300.77h-.52l.02-.5-.02-.5h.53z" stroke="#3a414a" stroke-width=".05" fill="#3a414a"/><path d="M457.9 300.27l-14.27 4.63v-9.27z" stroke="#3a414a" fill="#3a414a"/><path d="M541 300h172.5" stroke="#3a414a" fill="none"/><path d="M541 300.5h-.53l.03-.5-.02-.5h.53z" stroke="#3a414a" stroke-width=".05" fill="#3a414a"/><path d="M728.28 300L714 304.63v-9.26z" stroke="#3a414a" fill="#3a414a"/><path d="M660 312.94a6 6 0 0 1 6-6h108a6 6 0 0 1 6 6V334a6 6 0 0 1-6 6H666a6 6 0 0 1-6-6z" stroke="#000" stroke-opacity="0" fill="#fff" fill-opacity="0"/><use xlink:href="#t" transform="matrix(1,0,0,1,665,311.93869471172565) translate(24.135802469135804 19.27777777777778)"/><path d="M255 357.53c0 1.37-1.12 2.47-2.5 2.47s-2.5-1.1-2.5-2.47c0-1.36 1.12-2.46 2.5-2.46s2.5 1.1 2.5 2.46zM265 372.6c0 1.36-1.12 2.47-2.5 2.47s-2.5-1.1-2.5-2.47c0-1.36 1.12-2.47 2.5-2.47s2.5 1.1 2.5 2.47z" stroke="#3a414a"/><defs><linearGradient gradientUnits="userSpaceOnUse" id="a" x1="220" y1="120" x2="220" y2="480"><stop offset="0%" stop-color="#ced4db"/><stop offset="99.18%" stop-color="#fff"/></linearGradient><linearGradient gradientUnits="userSpaceOnUse" id="b" x1="40" y1="480" x2="40" y2="560"><stop offset="16.87%" stop-color="#fff"/><stop offset="100%" stop-color="#ba23f6"/></linearGradient><path fill="#3a414a" d="M144 0l-44-69L55 0H2l70-98-66-92h53l41 62 40-62h54l-67 91 71 99h-54" id="u"/><path fill="#3a414a" d="M135-194c87-1 58 113 63 194h-50c-7-57 23-157-34-157-59 0-34 97-39 157H25l-1-190h47c2 12-1 28 3 38 12-26 28-41 61-42" id="v"/><g id="c"><use transform="matrix(0.06172839506172839,0,0,0.06172839506172839,0,0)" xlink:href="#u"/><use transform="matrix(0.043209876543209874,0,0,0.043209876543209874,12.345679012345679,3.1111111111111107)" xlink:href="#v"/></g><linearGradient gradientUnits="userSpaceOnUse" id="d" x1="40" y1="280" x2="40" y2="360"><stop offset="0%" stop-color="#fff"/><stop offset="100%" stop-color="#fc9432"/></linearGradient><path fill="#3a414a" d="M182-182c0 78-84 86-111 141h115V0H12c-6-101 99-100 120-180 1-22-12-31-33-32-23 0-32 14-35 34l-49-3c5-45 32-70 84-70 51 0 83 22 83 69" id="w"/><g id="e"><use transform="matrix(0.06172839506172839,0,0,0.06172839506172839,0,0)" xlink:href="#u"/><use transform="matrix(0.043209876543209874,0,0,0.043209876543209874,12.345679012345679,3.1111111111111107)" xlink:href="#w"/></g><linearGradient gradientUnits="userSpaceOnUse" id="f" x1="40" y1="160" x2="40" y2="240"><stop offset="0%" stop-color="#fff"/><stop offset="100%" stop-color="#e81313"/></linearGradient><path fill="#3a414a" d="M23 0v-37h61v-169l-59 37v-38l62-41h46v211h57V0H23" id="x"/><g id="g"><use transform="matrix(0.06172839506172839,0,0,0.06172839506172839,0,0)" xlink:href="#u"/><use transform="matrix(0.043209876543209874,0,0,0.043209876543209874,12.345679012345679,3.1111111111111107)" xlink:href="#x"/></g><linearGradient gradientUnits="userSpaceOnUse" id="h" x1="40" y1="20" x2="40" y2="100"><stop offset="0%" stop-color="#fff"/><stop offset="95.47%" stop-color="#dfe3e8"/></linearGradient><path fill="#3a414a" d="M30-248c87 1 191-15 191 75 0 78-77 80-158 76V0H30v-248zm33 125c57 0 124 11 124-50 0-59-68-47-124-48v98" id="y"/><path fill="#3a414a" d="M100-194c63 0 86 42 84 106H49c0 40 14 67 53 68 26 1 43-12 49-29l28 8c-11 28-37 45-77 45C44 4 14-33 15-96c1-61 26-98 85-98zm52 81c6-60-76-77-97-28-3 7-6 17-6 28h103" id="z"/><path fill="#3a414a" d="M114-163C36-179 61-72 57 0H25l-1-190h30c1 12-1 29 2 39 6-27 23-49 58-41v29" id="A"/><path fill="#3a414a" d="M96-169c-40 0-48 33-48 73s9 75 48 75c24 0 41-14 43-38l32 2c-6 37-31 61-74 61-59 0-76-41-82-99-10-93 101-131 147-64 4 7 5 14 7 22l-32 3c-4-21-16-35-41-35" id="B"/><path fill="#3a414a" d="M115-194c55 1 70 41 70 98S169 2 115 4C84 4 66-9 55-30l1 105H24l-1-265h31l2 30c10-21 28-34 59-34zm-8 174c40 0 45-34 45-75s-6-73-45-74c-42 0-51 32-51 76 0 43 10 73 51 73" id="C"/><path fill="#3a414a" d="M59-47c-2 24 18 29 38 22v24C64 9 27 4 27-40v-127H5v-23h24l9-43h21v43h35v23H59v120" id="D"/><path fill="#3a414a" d="M100-194c62-1 85 37 85 99 1 63-27 99-86 99S16-35 15-95c0-66 28-99 85-99zM99-20c44 1 53-31 53-75 0-43-8-75-51-75s-53 32-53 75 10 74 51 75" id="E"/><path fill="#3a414a" d="M117-194c89-4 53 116 60 194h-32v-121c0-31-8-49-39-48C34-167 62-67 57 0H25l-1-190h30c1 10-1 24 2 32 11-22 29-35 61-36" id="F"/><g id="i"><use transform="matrix(0.06172839506172839,0,0,0.06172839506172839,0,0)" xlink:href="#y"/><use transform="matrix(0.06172839506172839,0,0,0.06172839506172839,14.814814814814813,0)" xlink:href="#z"/><use transform="matrix(0.06172839506172839,0,0,0.06172839506172839,27.160493827160494,0)" xlink:href="#A"/><use transform="matrix(0.06172839506172839,0,0,0.06172839506172839,34.50617283950617,0)" xlink:href="#B"/><use transform="matrix(0.06172839506172839,0,0,0.06172839506172839,45.61728395061728,0)" xlink:href="#z"/><use transform="matrix(0.06172839506172839,0,0,0.06172839506172839,57.962962962962955,0)" xlink:href="#C"/><use transform="matrix(0.06172839506172839,0,0,0.06172839506172839,70.30864197530863,0)" xlink:href="#D"/><use transform="matrix(0.06172839506172839,0,0,0.06172839506172839,76.48148148148147,0)" xlink:href="#A"/><use transform="matrix(0.06172839506172839,0,0,0.06172839506172839,83.82716049382715,0)" xlink:href="#E"/><use transform="matrix(0.06172839506172839,0,0,0.06172839506172839,96.17283950617283,0)" xlink:href="#F"/></g><use transform="matrix(0.06172839506172839,0,0,0.06172839506172839,0,0)" xlink:href="#x" id="j"/><path fill="#3a414a" d="M67-93c0 74 22 123 53 168H70C40 30 18-18 18-93s22-123 52-168h50c-32 44-53 94-53 168" id="G"/><path fill="#3a414a" d="M135-194c52 0 70 43 70 98 0 56-19 99-73 100-30 1-46-15-58-35L72 0H24l1-261h50v104c11-23 29-37 60-37zM114-30c31 0 40-27 40-66 0-37-7-63-39-63s-41 28-41 65c0 36 8 64 40 64" id="H"/><path fill="#3a414a" d="M25-224v-37h50v37H25zM25 0v-190h50V0H25" id="I"/><path fill="#3a414a" d="M133-34C117-15 103 5 69 4 32 3 11-16 11-54c-1-60 55-63 116-61 1-26-3-47-28-47-18 1-26 9-28 27l-52-2c7-38 36-58 82-57s74 22 75 68l1 82c-1 14 12 18 25 15v27c-30 8-71 5-69-32zm-48 3c29 0 43-24 42-57-32 0-66-3-65 30 0 17 8 27 23 27" id="J"/><path fill="#3a414a" d="M137-138c1-29-70-34-71-4 15 46 118 7 119 86 1 83-164 76-172 9l43-7c4 19 20 25 44 25 33 8 57-30 24-41C81-84 22-81 20-136c-2-80 154-74 161-7" id="K"/><path fill="#3a414a" d="M102-93c0 74-22 123-52 168H0C30 29 54-18 53-93c0-74-22-123-53-168h50c30 45 52 94 52 168" id="L"/><g id="k"><use transform="matrix(0.06172839506172839,0,0,0.06172839506172839,0,0)" xlink:href="#G"/><use transform="matrix(0.06172839506172839,0,0,0.06172839506172839,7.345679012345679,0)" xlink:href="#H"/><use transform="matrix(0.06172839506172839,0,0,0.06172839506172839,20.864197530864196,0)" xlink:href="#I"/><use transform="matrix(0.06172839506172839,0,0,0.06172839506172839,27.037037037037035,0)" xlink:href="#J"/><use transform="matrix(0.06172839506172839,0,0,0.06172839506172839,39.382716049382715,0)" xlink:href="#K"/><use transform="matrix(0.06172839506172839,0,0,0.06172839506172839,51.72839506172839,0)" xlink:href="#L"/></g><path fill="#3a414a" d="M231 0h-52l-39-155L100 0H48L-1-190h46L77-45c9-52 24-97 36-145h53l37 145 32-145h46" id="M"/><g id="l"><use transform="matrix(0.06172839506172839,0,0,0.06172839506172839,0,0)" xlink:href="#M"/><use transform="matrix(0.043209876543209874,0,0,0.043209876543209874,17.28395061728395,3.1111111111111107)" xlink:href="#x"/></g><g id="m"><use transform="matrix(0.06172839506172839,0,0,0.06172839506172839,0,0)" xlink:href="#M"/><use transform="matrix(0.043209876543209874,0,0,0.043209876543209874,17.28395061728395,3.1111111111111107)" xlink:href="#w"/></g><path fill="#3a414a" d="M128-127c34 4 56 21 59 58 7 91-148 94-172 28-4-9-6-17-7-26l51-5c1 24 16 35 40 36 23 0 39-12 38-36-1-31-31-36-65-34v-40c32 2 59-3 59-33 0-20-13-33-34-33s-33 13-35 32l-50-3c6-44 37-68 86-68 50 0 83 20 83 66 0 35-22 52-53 58" id="N"/><g id="n"><use transform="matrix(0.06172839506172839,0,0,0.06172839506172839,0,0)" xlink:href="#M"/><use transform="matrix(0.043209876543209874,0,0,0.043209876543209874,17.28395061728395,3.1111111111111107)" xlink:href="#N"/></g><g id="o"><use transform="matrix(0.06172839506172839,0,0,0.06172839506172839,0,0)" xlink:href="#M"/><use transform="matrix(0.043209876543209874,0,0,0.043209876543209874,17.28395061728395,3.1111111111111107)" xlink:href="#v"/></g><linearGradient gradientUnits="userSpaceOnUse" id="p" x1="420" y1="240.53" x2="420" y2="360"><stop offset="0%" stop-color="#e81313"/><stop offset="35.39%" stop-color="#fc9432"/><stop offset="57.2%" stop-color="#ffe342"/><stop offset="72.84%" stop-color="#54c45e"/><stop offset="85.19%" stop-color="#1071e5"/><stop offset="100%" stop-color="#d916a8"/></linearGradient><path fill="#202122" d="M16 0v-41l79-89-76-77v-41h175v40H72l65 66v24L68-40h137V0H16" id="O"/><use transform="matrix(0.12592592592592589,0,0,0.12592592592592589,0,0)" xlink:href="#O" id="q"/><linearGradient gradientUnits="userSpaceOnUse" id="r" x1="460" y1="340" x2="540" y2="340"><stop offset="0%" stop-color="#fff"/><stop offset="53.5%" stop-color="#fc9432"/></linearGradient><path fill="#3a414a" d="M205 0l-28-72H64L36 0H1l101-248h38L239 0h-34zm-38-99l-47-123c-12 45-31 82-46 123h93" id="P"/><path fill="#3a414a" d="M24-231v-30h32v30H24zM24 0v-190h32V0H24" id="Q"/><path fill="#3a414a" d="M108 0H70L1-190h34L89-25l56-165h34" id="R"/><path fill="#3a414a" d="M141-36C126-15 110 5 73 4 37 3 15-17 15-53c-1-64 63-63 125-63 3-35-9-54-41-54-24 1-41 7-42 31l-33-3c5-37 33-52 76-52 45 0 72 20 72 64v82c-1 20 7 32 28 27v20c-31 9-61-2-59-35zM48-53c0 20 12 33 32 33 41-3 63-29 60-74-43 2-92-5-92 41" id="S"/><g id="s"><use transform="matrix(0.04320987654320987,0,0,0.04320987654320987,0,0)" xlink:href="#P"/><use transform="matrix(0.04320987654320987,0,0,0.04320987654320987,10.370370370370368,0)" xlink:href="#B"/><use transform="matrix(0.04320987654320987,0,0,0.04320987654320987,18.148148148148145,0)" xlink:href="#D"/><use transform="matrix(0.04320987654320987,0,0,0.04320987654320987,22.469135802469133,0)" xlink:href="#Q"/><use transform="matrix(0.04320987654320987,0,0,0.04320987654320987,25.88271604938271,0)" xlink:href="#R"/><use transform="matrix(0.04320987654320987,0,0,0.04320987654320987,33.66049382716049,0)" xlink:href="#S"/><use transform="matrix(0.04320987654320987,0,0,0.04320987654320987,42.30246913580246,0)" xlink:href="#D"/><use transform="matrix(0.04320987654320987,0,0,0.04320987654320987,46.62345679012345,0)" xlink:href="#Q"/><use transform="matrix(0.04320987654320987,0,0,0.04320987654320987,50.037037037037024,0)" xlink:href="#E"/><use transform="matrix(0.04320987654320987,0,0,0.04320987654320987,58.67901234567901,0)" xlink:href="#F"/></g><path fill="#3a414a" d="M84 4C-5 8 30-112 23-190h32v120c0 31 7 50 39 49 72-2 45-101 50-169h31l1 190h-30c-1-10 1-25-2-33-11 22-28 36-60 37" id="T"/><g id="t"><use transform="matrix(0.06172839506172839,0,0,0.06172839506172839,0,0)" xlink:href="#E"/><use transform="matrix(0.06172839506172839,0,0,0.06172839506172839,12.345679012345679,0)" xlink:href="#T"/><use transform="matrix(0.06172839506172839,0,0,0.06172839506172839,24.691358024691358,0)" xlink:href="#D"/><use transform="matrix(0.06172839506172839,0,0,0.06172839506172839,30.864197530864196,0)" xlink:href="#C"/><use transform="matrix(0.06172839506172839,0,0,0.06172839506172839,43.20987654320987,0)" xlink:href="#T"/><use transform="matrix(0.06172839506172839,0,0,0.06172839506172839,55.55555555555555,0)" xlink:href="#D"/></g></defs></g></svg>